HIERARCHY
ROOT __0
{
	OFFSET 0.0 0.0 0.0
	CHANNELS 0
	JOINT torso_base_link
	{
		OFFSET 0.000000 0.000000 0.000000
		CHANNELS 6 Xposition Yposition Zposition Zrotation Xrotation Yrotation
		JOINT torso_link_b1
		{
			OFFSET 0.925000 0.000000 8.835000
			CHANNELS 6 Xposition Yposition Zposition Zrotation Xrotation Yrotation
			JOINT tail_lb1
			{
				OFFSET 0.000000 0.000000 3.221000
				CHANNELS 3 Zrotation Xrotation Yrotation
				JOINT arm_left_link_1_s
				{
					OFFSET 1.000000 0.000000 0.000000
					CHANNELS 3 Zrotation Xrotation Yrotation
					JOINT arm_left_link_2_l
					{
						OFFSET 0.000297 2.530458 0.000400
						CHANNELS 3 Zrotation Xrotation Yrotation
						JOINT tail_left_link_2_l
						{
							OFFSET 0.000000 0.000000 -2.000400
							CHANNELS 3 Zrotation Xrotation Yrotation
							JOINT arm_left_link_3_e
							{
								OFFSET -0.000297 1.690000 2.000000
								CHANNELS 3 Zrotation Xrotation Yrotation
								JOINT arm_left_link_4_u
								{
									OFFSET 0.000000 1.809932 0.000000
									CHANNELS 3 Zrotation Xrotation Yrotation
									JOINT tail_l4u
									{
										OFFSET 0.000297 0.000000 2.035159
										CHANNELS 3 Zrotation Xrotation Yrotation
										JOINT arm_left_link_5_r
										{
											OFFSET 0.000000 4.485610 -2.035159
											CHANNELS 3 Zrotation Xrotation Yrotation
											JOINT arm_left_link_6_b
											{
												OFFSET -0.000297 -0.999547 0.000000
												CHANNELS 3 Zrotation Xrotation Yrotation
												JOINT tail_l6b
												{
													OFFSET 0.000296 0.000000 2.268923
													CHANNELS 3 Zrotation Xrotation Yrotation
													JOINT arm_left_link_7_t
													{
														OFFSET -0.000296 2.679547 -2.268923
														CHANNELS 3 Zrotation Xrotation Yrotation
														JOINT arm_left_tool
														{
															OFFSET 0.000296 -0.500000 0.000000
															CHANNELS 3 Zrotation Xrotation Yrotation
															JOINT hand_left_1
															{
																OFFSET 0.000004 -0.500000 0.000000
																CHANNELS 6 Xposition Yposition Zposition Zrotation Xrotation Yrotation
																End Site
																{
																	OFFSET 0.999704 0.000000 0.000100
																}
															}
															JOINT hand_left_2
															{
																OFFSET 0.000004 -0.500000 0.000000
																CHANNELS 6 Xposition Yposition Zposition Zrotation Xrotation Yrotation
																End Site
																{
																	OFFSET -1.000295 0.000000 0.000080
																}
															}
														}
													}
												}
											}
										}
									}
								}
							}
						}
					}
				}
			}
			JOINT tail_right_link_1_s
			{
				OFFSET 0.000000 0.000000 3.221000
				CHANNELS 3 Zrotation Xrotation Yrotation
				JOINT arm_right_link_1_s
				{
					OFFSET 1.000000 -3.829999 0.000000
					CHANNELS 3 Zrotation Xrotation Yrotation
					JOINT arm_right_link_2_l
					{
						OFFSET 0.000000 1.299544 0.004000
						CHANNELS 3 Zrotation Xrotation Yrotation
						JOINT tail_r2l
						{
							OFFSET 0.000000 0.000000 2.000001
							CHANNELS 3 Zrotation Xrotation Yrotation
							JOINT arm_right_link_3_e
							{
								OFFSET 0.000000 -4.499545 -2.004001
								CHANNELS 3 Zrotation Xrotation Yrotation
								JOINT arm_right_link_4_u
								{
									OFFSET 0.000000 0.999618 0.000000
									CHANNELS 3 Zrotation Xrotation Yrotation
									JOINT tailr4u
									{
										OFFSET 0.000000 0.000000 -1.829300
										CHANNELS 3 Zrotation Xrotation Yrotation
										JOINT arm_right_link_5_r
										{
											OFFSET 0.000000 -1.935997 1.829300
											CHANNELS 3 Zrotation Xrotation Yrotation
											JOINT arm_right_link_6_b
											{
												OFFSET 0.000000 -1.550063 0.000000
												CHANNELS 3 Zrotation Xrotation Yrotation
												JOINT tail_r6b
												{
													OFFSET 0.000000 0.000000 -1.806000
													CHANNELS 3 Zrotation Xrotation Yrotation
													JOINT arm_right_link_7_t
													{
														OFFSET 0.000000 -1.679957 1.806000
														CHANNELS 3 Xrotation Yrotation Zrotation
														JOINT arm_right_tool
														{
															OFFSET 0.000000 -0.499600 0.000000
															CHANNELS 6 Xposition Yposition Zposition Zrotation Xrotation Yrotation
															JOINT hand_right_1
															{
																OFFSET 0.000000 0.500000 0.000000
																CHANNELS 6 Xposition Yposition Zposition Zrotation Xrotation Yrotation
																End Site
																{
																	OFFSET 1.000311 0.000035 0.000072
																}
															}
															JOINT hand_right_2
															{
																OFFSET 0.000000 0.500000 0.000000
																CHANNELS 6 Xposition Yposition Zposition Zrotation Xrotation Yrotation
																End Site
																{
																	OFFSET -0.999690 0.000000 0.000072
																}
															}
														}
													}
												}
											}
										}
									}
								}
							}
						}
					}
				}
			}
		}
	}
	JOINT lefttarget
	{
		OFFSET 1.925296 13.000000 12.056000
		CHANNELS 6 Xposition Yposition Zposition Zrotation Xrotation Yrotation
		End Site
		{
			OFFSET 0.000000 1.000000 0.000000
		}
	}
	JOINT right_target
	{
		OFFSET 1.925000 -13.000000 12.056000
		CHANNELS 6 Xposition Yposition Zposition Zrotation Xrotation Yrotation
		End Site
		{
			OFFSET 0.000000 -1.000000 0.000000
		}
	}
}
MOTION
Frames: 4
Frame Time: 0.041667
0.000000 0.000000 0.000000 -0.000000 0.000000 -0.000000 0.925000 0.000000 8.835000 18.412313 -0.000002 -0.000002 -0.000002 0.000000 0.000000 0.002895 0.014928 84.837691 -86.511442 0.000004 0.000001 0.000000 -0.000005 -0.000000 -0.000004 0.000031 -81.332410 -85.551493 -0.008321 -0.007673 0.000005 0.000002 0.000000 -0.006357 0.013245 51.184901 -44.632810 -0.005243 -0.002141 -0.000008 0.000007 -0.000009 0.052907 -0.028098 124.124509 -0.000001 -0.000004 -0.000000 0.000005 -0.500001 -0.000002 0.000001 0.000004 0.000001 0.000002 -0.500000 -0.000001 0.000011 -0.000009 0.000002 -0.000002 0.000000 -0.000000 0.165643 0.115863 69.942162 32.370285 0.000003 -0.000005 0.000003 -0.000005 -0.000001 0.000024 -0.000009 -81.514216 107.738953 -0.000049 -0.000020 0.000001 -0.000000 -0.000002 -0.000005 -0.000007 67.546097 71.500585 -0.000018 -0.000026 0.000000 -0.000005 -0.000003 -0.000075 -201.996889 -0.000008 -0.000001 -0.499601 0.000001 -0.000000 -0.000000 -0.000002 -0.000002 0.500000 -0.000001 -0.000001 -0.000003 0.000001 0.000000 0.499999 -0.000002 0.000000 0.000001 0.000005 6.644805 2.677039 9.417240 61.378252 154.555091 86.566637 6.666664 -0.704076 10.462034 184.346164 28.055847 188.256693 
0.000000 0.000000 0.000000 -0.000000 0.000000 -0.000000 0.925000 -0.000000 8.835000 17.815507 -0.000002 -0.000002 0.000002 0.000000 -0.000000 0.002904 0.014916 84.768938 -86.354915 0.000002 0.000009 -0.000001 -0.000003 0.000001 -0.000019 0.000014 -82.361310 -85.554430 -0.008321 -0.007678 0.000006 0.000002 0.000000 -0.007071 0.013784 54.201656 -45.269534 -0.005306 -0.002209 -0.000006 0.000007 -0.000003 0.051584 -0.028954 121.472319 0.000000 -0.000003 0.000000 0.000004 -0.500000 -0.000001 0.000001 -0.000000 0.000001 0.000004 -0.499998 -0.000000 -0.000003 -0.000000 -0.000001 -0.000001 -0.000000 0.000000 0.165070 0.114312 69.404954 31.632430 -0.000007 -0.000003 -0.000000 -0.000003 -0.000002 0.000021 -0.000013 -80.039544 107.995345 -0.000044 -0.000025 0.000001 0.000003 -0.000000 -0.000001 -0.000009 65.820395 69.843541 -0.000019 -0.000029 0.000001 -0.000003 -0.000001 -0.000096 -203.042591 0.000044 -0.000001 -0.499602 -0.000002 0.000001 0.000002 -0.000002 0.000000 0.499998 0.000002 -0.000001 -0.000000 -0.000002 -0.000001 0.499998 0.000002 0.000000 0.000000 -0.000012 6.648745 2.679845 9.414963 61.499433 154.500204 86.540163 6.619604 -0.709664 10.490836 184.549895 26.910734 186.315772 
0.000000 0.000000 0.000000 -0.000000 0.000000 -0.000000 0.925000 -0.000000 8.835000 17.406537 -0.000002 -0.000002 0.000002 0.000000 0.000000 0.002904 0.014918 84.783152 -86.272051 0.000001 -0.000003 0.000001 -0.000003 -0.000002 0.000007 -0.000012 -83.065264 -85.556070 -0.008328 -0.007680 0.000006 0.000003 0.000001 -0.007404 0.014018 55.562745 -45.487926 -0.005331 -0.002230 -0.000004 0.000008 -0.000008 0.050940 -0.029343 120.203256 0.000001 -0.000007 0.000000 0.000004 -0.499999 -0.000004 -0.000002 0.000025 0.000000 0.000004 -0.499997 -0.000003 -0.000001 0.000001 -0.000000 0.000001 -0.000000 0.000000 0.164341 0.112412 68.743532 31.167973 -0.000000 -0.000009 0.000000 -0.000000 0.000002 0.000013 -0.000008 -78.922160 108.263962 -0.000061 -0.000021 0.000004 -0.000005 -0.000004 0.000002 -0.000005 64.093204 69.102738 -0.000024 -0.000026 0.000002 -0.000003 -0.000002 -0.000075 -204.247914 -0.000007 0.000001 -0.499601 0.000001 0.000000 0.000000 0.000001 0.000001 0.499999 -0.000002 -0.000000 0.000001 0.000002 0.000003 0.500002 -0.000002 -0.000001 -0.000000 -0.000003 6.655572 2.681191 9.412887 61.601039 154.407122 86.494435 6.574780 -0.715880 10.527032 184.704762 25.861405 184.572953 
0.000000 0.000000 0.000000 -0.000000 0.000000 -0.000000 0.925000 -0.000000 8.835000 16.764838 -0.000002 -0.000002 -0.000002 -0.000000 -0.000000 0.002873 0.014962 85.047951 -86.145515 0.000004 -0.000000 0.000000 -0.000003 -0.000003 0.000003 -0.000003 -83.803621 -85.558228 -0.008325 -0.007680 0.000005 0.000002 0.000000 -0.007295 0.013945 55.125378 -45.411783 -0.005317 -0.002225 -0.000006 0.000003 -0.000006 0.051051 -0.029260 120.396509 -0.000002 -0.000006 0.000001 0.000005 -0.500000 -0.000001 -0.000002 -0.000007 0.000001 0.000005 -0.500000 -0.000000 0.000006 -0.000007 0.000003 0.000002 -0.000000 0.000000 0.162845 0.108678 67.436309 30.532848 -0.000005 -0.000007 -0.000002 -0.000002 -0.000001 0.000009 -0.000015 -77.009741 108.476265 -0.000038 -0.000021 -0.000001 -0.000002 -0.000002 -0.000007 0.000006 62.562941 67.825158 -0.000016 -0.000029 -0.000000 -0.000005 0.000001 -0.000083 -205.142450 -0.000010 -0.000001 -0.499602 -0.000001 -0.000000 0.000001 0.000000 -0.000001 0.499999 0.000001 -0.000001 0.000001 -0.000000 -0.000001 0.500000 0.000001 0.000000 0.000004 -0.000010 6.668276 2.677624 9.411394 61.590111 154.309546 86.468795 6.532158 -0.727798 10.566922 184.739555 24.879458 182.929733 
